%TF.GenerationSoftware,KiCad,Pcbnew,(6.0.9)*%
%TF.CreationDate,2022-11-15T22:09:54+01:00*%
%TF.ProjectId,Melodieklingel_FA86,4d656c6f-6469-4656-9b6c-696e67656c5f,1*%
%TF.SameCoordinates,Original*%
%TF.FileFunction,Plated,1,2,PTH,Drill*%
%TF.FilePolarity,Positive*%
%FSLAX46Y46*%
G04 Gerber Fmt 4.6, Leading zero omitted, Abs format (unit mm)*
G04 Created by KiCad (PCBNEW (6.0.9)) date 2022-11-15 22:09:54*
%MOMM*%
%LPD*%
G01*
G04 APERTURE LIST*
%TA.AperFunction,ComponentDrill*%
%ADD10C,0.500000*%
%TD*%
%TA.AperFunction,ViaDrill*%
%ADD11C,0.700000*%
%TD*%
%TA.AperFunction,ComponentDrill*%
%ADD12C,0.700000*%
%TD*%
%TA.AperFunction,ComponentDrill*%
%ADD13C,0.800000*%
%TD*%
%TA.AperFunction,ComponentDrill*%
%ADD14C,1.000000*%
%TD*%
%TA.AperFunction,ComponentDrill*%
%ADD15C,1.200000*%
%TD*%
%TA.AperFunction,ComponentDrill*%
%ADD16C,3.700000*%
%TD*%
G04 APERTURE END LIST*
D10*
%TO.C,H1*%
X102225000Y-60000000D03*
%TO.C,H3*%
X102225000Y-150000000D03*
%TO.C,H1*%
X103037779Y-58037779D03*
X103037779Y-61962221D03*
%TO.C,H3*%
X103037779Y-148037779D03*
X103037779Y-151962221D03*
%TO.C,H1*%
X105000000Y-57225000D03*
X105000000Y-62775000D03*
%TO.C,H3*%
X105000000Y-147225000D03*
X105000000Y-152775000D03*
%TO.C,H1*%
X106962221Y-58037779D03*
X106962221Y-61962221D03*
%TO.C,H3*%
X106962221Y-148037779D03*
X106962221Y-151962221D03*
%TO.C,H1*%
X107775000Y-60000000D03*
%TO.C,H3*%
X107775000Y-150000000D03*
%TO.C,H2*%
X192225000Y-60000000D03*
%TO.C,H4*%
X192225000Y-150000000D03*
%TO.C,H2*%
X193037779Y-58037779D03*
X193037779Y-61962221D03*
%TO.C,H4*%
X193037779Y-148037779D03*
X193037779Y-151962221D03*
%TO.C,H2*%
X195000000Y-57225000D03*
X195000000Y-62775000D03*
%TO.C,H4*%
X195000000Y-147225000D03*
X195000000Y-152775000D03*
%TO.C,H2*%
X196962221Y-58037779D03*
X196962221Y-61962221D03*
%TO.C,H4*%
X196962221Y-148037779D03*
X196962221Y-151962221D03*
%TO.C,H2*%
X197775000Y-60000000D03*
%TO.C,H4*%
X197775000Y-150000000D03*
%TD*%
D11*
X106680000Y-110490000D03*
X106680000Y-114300000D03*
X109220000Y-92710000D03*
X111760000Y-73660000D03*
X111760000Y-78740000D03*
X120650000Y-119380000D03*
X124457860Y-71117860D03*
X129540000Y-78740000D03*
X129540000Y-119380000D03*
X137160000Y-96520000D03*
X138430000Y-125730000D03*
X139700000Y-93980000D03*
X139700000Y-135890000D03*
X142240000Y-138430000D03*
X147320000Y-69850000D03*
X147320000Y-91440000D03*
X152400000Y-67310000D03*
X152400000Y-91440000D03*
X153670000Y-125730000D03*
X157480000Y-127000000D03*
X160020000Y-93980000D03*
X160020000Y-96520000D03*
X160020000Y-120650000D03*
X167005000Y-127000000D03*
X175895000Y-103505000D03*
X175895000Y-107315000D03*
X176530000Y-120650000D03*
X177800000Y-138430000D03*
X177800000Y-142240000D03*
X181610000Y-115570000D03*
X186682496Y-115577504D03*
X189230000Y-78740000D03*
X193040000Y-135890000D03*
D12*
%TO.C,VT1*%
X109220000Y-133410000D03*
X109220000Y-135910000D03*
X109220000Y-138410000D03*
%TO.C,VD1*%
X134620000Y-144780000D03*
X137120000Y-144780000D03*
%TO.C,VD100*%
X167640000Y-142280000D03*
X167640000Y-144780000D03*
%TO.C,VT2*%
X184150000Y-105410000D03*
X186690000Y-102870000D03*
X186690000Y-107950000D03*
D13*
%TO.C,C100*%
X105410000Y-99060000D03*
X105410000Y-104060000D03*
%TO.C,R6*%
X105410000Y-128270000D03*
X105410000Y-143510000D03*
%TO.C,D2*%
X109220000Y-107950000D03*
X109220000Y-123190000D03*
X111760000Y-107950000D03*
X111760000Y-123190000D03*
X114300000Y-107950000D03*
X114300000Y-123190000D03*
%TO.C,D3*%
X116835000Y-76205000D03*
X116835000Y-91445000D03*
%TO.C,D2*%
X116840000Y-107950000D03*
X116840000Y-123190000D03*
%TO.C,R3*%
X116840000Y-128270000D03*
%TO.C,C4*%
X116840000Y-133350000D03*
X116840000Y-136850000D03*
%TO.C,R5*%
X116840000Y-144780000D03*
%TO.C,D3*%
X119375000Y-76205000D03*
X119375000Y-91445000D03*
%TO.C,D2*%
X119380000Y-107950000D03*
X119380000Y-123190000D03*
%TO.C,D3*%
X121915000Y-76205000D03*
X121915000Y-91445000D03*
%TO.C,D2*%
X121920000Y-107950000D03*
X121920000Y-123190000D03*
%TO.C,D3*%
X124455000Y-76205000D03*
X124455000Y-91445000D03*
%TO.C,D2*%
X124460000Y-107950000D03*
X124460000Y-123190000D03*
%TO.C,D3*%
X126995000Y-76205000D03*
X126995000Y-91445000D03*
%TO.C,D2*%
X127000000Y-107950000D03*
X127000000Y-123190000D03*
%TO.C,D3*%
X129535000Y-76205000D03*
X129535000Y-91445000D03*
%TO.C,D2*%
X129540000Y-107950000D03*
X129540000Y-123190000D03*
%TO.C,C3*%
X129580000Y-140970000D03*
%TO.C,D3*%
X132075000Y-76205000D03*
X132075000Y-91445000D03*
%TO.C,D2*%
X132080000Y-107950000D03*
X132080000Y-123190000D03*
%TO.C,R3*%
X132080000Y-128270000D03*
%TO.C,C3*%
X132080000Y-140970000D03*
%TO.C,R5*%
X132080000Y-144780000D03*
%TO.C,D3*%
X134615000Y-76205000D03*
X134615000Y-91445000D03*
%TO.C,D2*%
X134620000Y-107950000D03*
X134620000Y-123190000D03*
%TO.C,D3*%
X137155000Y-76205000D03*
X137155000Y-91445000D03*
%TO.C,D2*%
X137160000Y-107950000D03*
X137160000Y-123190000D03*
%TO.C,C2*%
X139602651Y-100330000D03*
%TO.C,D3*%
X139695000Y-76205000D03*
X139695000Y-91445000D03*
%TO.C,D2*%
X139700000Y-107950000D03*
X139700000Y-123190000D03*
%TO.C,C2*%
X142102651Y-100330000D03*
%TO.C,D3*%
X142235000Y-76205000D03*
X142235000Y-91445000D03*
%TO.C,D2*%
X142240000Y-107950000D03*
X142240000Y-123190000D03*
%TO.C,D3*%
X144775000Y-76205000D03*
X144775000Y-91445000D03*
%TO.C,D2*%
X144780000Y-107950000D03*
X144780000Y-123190000D03*
%TO.C,R101*%
X147095000Y-142240000D03*
%TO.C,D2*%
X147320000Y-107950000D03*
X147320000Y-123190000D03*
X149860000Y-107950000D03*
X149860000Y-123190000D03*
%TO.C,R101*%
X152175000Y-142240000D03*
%TO.C,D2*%
X152400000Y-107950000D03*
X152400000Y-123190000D03*
X154940000Y-107950000D03*
X154940000Y-123190000D03*
%TO.C,D100*%
X156210000Y-142225000D03*
X156210000Y-144765000D03*
X156210000Y-147305000D03*
%TO.C,D2*%
X157480000Y-107950000D03*
X157480000Y-123190000D03*
%TO.C,R1*%
X161290000Y-69850000D03*
%TO.C,R2*%
X163463048Y-74930000D03*
%TO.C,R1*%
X163830000Y-69850000D03*
%TO.C,D100*%
X163830000Y-142225000D03*
X163830000Y-144765000D03*
X163830000Y-147305000D03*
%TO.C,R1*%
X166370000Y-69850000D03*
%TO.C,R2*%
X167055150Y-78522102D03*
%TO.C,R100*%
X175260000Y-144780000D03*
%TO.C,R9*%
X175514000Y-138430000D03*
%TO.C,C11*%
X175895000Y-125810000D03*
X175895000Y-130810000D03*
%TO.C,C10*%
X177840000Y-88392000D03*
%TO.C,R11*%
X178308000Y-92710000D03*
%TO.C,D4*%
X179060000Y-118115000D03*
X179060000Y-120655000D03*
X179060000Y-123195000D03*
X179060000Y-125735000D03*
X179060000Y-128275000D03*
X179060000Y-130815000D03*
X179060000Y-133355000D03*
%TO.C,D1*%
X179070000Y-69850000D03*
X179070000Y-72390000D03*
X179070000Y-74930000D03*
X179070000Y-77470000D03*
X179070000Y-80010000D03*
X179070000Y-82550000D03*
X179070000Y-85090000D03*
%TO.C,C10*%
X182840000Y-88392000D03*
%TO.C,D4*%
X186680000Y-118115000D03*
X186680000Y-120655000D03*
X186680000Y-123195000D03*
X186680000Y-125735000D03*
X186680000Y-128275000D03*
X186680000Y-130815000D03*
X186680000Y-133355000D03*
%TO.C,D1*%
X186690000Y-69850000D03*
X186690000Y-72390000D03*
X186690000Y-74930000D03*
X186690000Y-77470000D03*
X186690000Y-80010000D03*
X186690000Y-82550000D03*
X186690000Y-85090000D03*
%TO.C,C5*%
X190500000Y-128310000D03*
X190500000Y-133310000D03*
%TO.C,R100*%
X190500000Y-144780000D03*
%TO.C,R9*%
X190754000Y-138430000D03*
%TO.C,R11*%
X193548000Y-92710000D03*
D14*
%TO.C,C6*%
X171704000Y-87586500D03*
X171704000Y-90086500D03*
X171704000Y-92586500D03*
X171704000Y-118086500D03*
D15*
%TO.C,TP2*%
X113030000Y-148590000D03*
%TO.C,TP5*%
X129540000Y-62230000D03*
%TO.C,R12*%
X134620000Y-128270000D03*
%TO.C,TP1*%
X137160000Y-148590000D03*
%TO.C,R4*%
X145750000Y-100330000D03*
%TO.C,R12*%
X149860000Y-128270000D03*
%TO.C,TP102*%
X149860000Y-148590000D03*
%TO.C,R4*%
X150830000Y-100330000D03*
%TO.C,TP0*%
X156210000Y-69850000D03*
%TO.C,TP101*%
X168910000Y-148590000D03*
%TO.C,R8*%
X172212000Y-123190000D03*
X172212000Y-138430000D03*
%TO.C,C1*%
X172720000Y-69462000D03*
X172720000Y-84462000D03*
%TO.C,TP4*%
X181610000Y-96520000D03*
%TO.C,TP100*%
X181610000Y-148590000D03*
%TO.C,R7*%
X190500000Y-67310000D03*
X190500000Y-82550000D03*
%TO.C,R10*%
X194056000Y-107950000D03*
X194056000Y-123190000D03*
%TO.C,TP3*%
X194310000Y-78740000D03*
D16*
%TO.C,H1*%
X105000000Y-60000000D03*
%TO.C,H3*%
X105000000Y-150000000D03*
%TO.C,H2*%
X195000000Y-60000000D03*
%TO.C,H4*%
X195000000Y-150000000D03*
M02*
